<mxfile host="app.diagrams.net" modified="2023-12-31T20:04:33.260Z" agent="Mozilla/5.0 (Windows NT 10.0; Win64; x64; rv:109.0) Gecko/20100101 Firefox/119.0" etag="a2fj5nFCeSeqppvgTkUt" version="22.1.16" type="github">
  <diagram name="PÃ¡gina-1" id="zLWKFBo0BfelDE4MzV_v">
    <mxGraphModel dx="1303" dy="548" grid="1" gridSize="10" guides="1" tooltips="1" connect="1" arrows="1" fold="1" page="1" pageScale="1" pageWidth="1654" pageHeight="1169" math="0" shadow="0">
      <root>
        <mxCell id="0" />
        <mxCell id="1" parent="0" />
        <mxCell id="tRrPQd9gGLpKsUqzO6ij-82" value="" style="rounded=0;whiteSpace=wrap;html=1;fillColor=none;dashed=1;strokeColor=#666666;" vertex="1" parent="1">
          <mxGeometry x="420" y="1100" width="1220" height="1050" as="geometry" />
        </mxCell>
        <mxCell id="tRrPQd9gGLpKsUqzO6ij-64" value="" style="rounded=0;whiteSpace=wrap;html=1;fillColor=none;dashed=1;strokeColor=#666666;" vertex="1" parent="1">
          <mxGeometry x="420" y="790" width="1220" height="280" as="geometry" />
        </mxCell>
        <mxCell id="tRrPQd9gGLpKsUqzO6ij-52" value="" style="rounded=0;whiteSpace=wrap;html=1;fillColor=none;dashed=1;strokeColor=#666666;" vertex="1" parent="1">
          <mxGeometry x="420" y="430" width="1220" height="335" as="geometry" />
        </mxCell>
        <mxCell id="tRrPQd9gGLpKsUqzO6ij-51" value="" style="rounded=0;whiteSpace=wrap;html=1;fillColor=none;dashed=1;strokeColor=#666666;" vertex="1" parent="1">
          <mxGeometry x="420" y="110" width="1220" height="290" as="geometry" />
        </mxCell>
        <mxCell id="tRrPQd9gGLpKsUqzO6ij-5" style="edgeStyle=orthogonalEdgeStyle;rounded=0;orthogonalLoop=1;jettySize=auto;html=1;entryX=0;entryY=0.5;entryDx=0;entryDy=0;" edge="1" parent="1" source="tRrPQd9gGLpKsUqzO6ij-1" target="tRrPQd9gGLpKsUqzO6ij-2">
          <mxGeometry relative="1" as="geometry" />
        </mxCell>
        <mxCell id="tRrPQd9gGLpKsUqzO6ij-6" style="edgeStyle=orthogonalEdgeStyle;rounded=0;orthogonalLoop=1;jettySize=auto;html=1;entryX=0;entryY=0.5;entryDx=0;entryDy=0;" edge="1" parent="1" source="tRrPQd9gGLpKsUqzO6ij-1" target="tRrPQd9gGLpKsUqzO6ij-4">
          <mxGeometry relative="1" as="geometry" />
        </mxCell>
        <mxCell id="tRrPQd9gGLpKsUqzO6ij-1" value="&lt;div&gt;AppAtom&lt;/div&gt;" style="rounded=1;whiteSpace=wrap;html=1;" vertex="1" parent="1">
          <mxGeometry x="140" y="160" width="120" height="60" as="geometry" />
        </mxCell>
        <mxCell id="tRrPQd9gGLpKsUqzO6ij-2" value="MyAtomInFolderAtom" style="rounded=1;whiteSpace=wrap;html=1;" vertex="1" parent="1">
          <mxGeometry x="250" y="240" width="150" height="60" as="geometry" />
        </mxCell>
        <mxCell id="tRrPQd9gGLpKsUqzO6ij-7" style="edgeStyle=orthogonalEdgeStyle;rounded=0;orthogonalLoop=1;jettySize=auto;html=1;entryX=0;entryY=0.5;entryDx=0;entryDy=0;" edge="1" parent="1" source="tRrPQd9gGLpKsUqzO6ij-3" target="tRrPQd9gGLpKsUqzO6ij-1">
          <mxGeometry relative="1" as="geometry" />
        </mxCell>
        <mxCell id="tRrPQd9gGLpKsUqzO6ij-3" value="IndexAtom" style="rounded=1;whiteSpace=wrap;html=1;" vertex="1" parent="1">
          <mxGeometry x="20" y="70" width="120" height="60" as="geometry" />
        </mxCell>
        <mxCell id="tRrPQd9gGLpKsUqzO6ij-4" value="MyFirstAtom" style="rounded=1;whiteSpace=wrap;html=1;" vertex="1" parent="1">
          <mxGeometry x="250" y="330" width="120" height="60" as="geometry" />
        </mxCell>
        <mxCell id="tRrPQd9gGLpKsUqzO6ij-8" value="" style="endArrow=block;dashed=1;html=1;strokeWidth=3;rounded=0;startArrow=none;startFill=0;endFill=1;" edge="1" parent="1">
          <mxGeometry width="50" height="50" relative="1" as="geometry">
            <mxPoint x="410" y="40" as="sourcePoint" />
            <mxPoint x="410" y="2180" as="targetPoint" />
          </mxGeometry>
        </mxCell>
        <mxCell id="tRrPQd9gGLpKsUqzO6ij-9" value="&lt;div&gt;AppAtom&lt;/div&gt;" style="rounded=1;whiteSpace=wrap;html=1;" vertex="1" parent="1">
          <mxGeometry x="430" y="150" width="150" height="60" as="geometry" />
        </mxCell>
        <mxCell id="tRrPQd9gGLpKsUqzO6ij-10" value="MyAtomInFolderAtom" style="rounded=1;whiteSpace=wrap;html=1;" vertex="1" parent="1">
          <mxGeometry x="430" y="455" width="150" height="60" as="geometry" />
        </mxCell>
        <mxCell id="tRrPQd9gGLpKsUqzO6ij-11" value="IndexAtom" style="rounded=1;whiteSpace=wrap;html=1;" vertex="1" parent="1">
          <mxGeometry x="430" y="840" width="150" height="60" as="geometry" />
        </mxCell>
        <mxCell id="tRrPQd9gGLpKsUqzO6ij-12" value="atomicreact.defines" style="swimlane;fontStyle=0;childLayout=stackLayout;horizontal=1;startSize=30;horizontalStack=0;resizeParent=1;resizeParentMax=0;resizeLast=0;collapsible=1;marginBottom=0;whiteSpace=wrap;html=1;" vertex="1" parent="1">
          <mxGeometry x="915" y="200" width="260" height="90" as="geometry" />
        </mxCell>
        <mxCell id="tRrPQd9gGLpKsUqzO6ij-13" value="atomInFolder/myAtomInFolderAtom: AppAtom" style="text;strokeColor=#82b366;fillColor=#d5e8d4;align=left;verticalAlign=middle;spacingLeft=4;spacingRight=4;overflow=hidden;points=[[0,0.5],[1,0.5]];portConstraint=eastwest;rotatable=0;whiteSpace=wrap;html=1;" vertex="1" parent="tRrPQd9gGLpKsUqzO6ij-12">
          <mxGeometry y="30" width="260" height="30" as="geometry" />
        </mxCell>
        <mxCell id="tRrPQd9gGLpKsUqzO6ij-14" value="myAtoms/myFirstAtom: AppAtom" style="text;strokeColor=#82b366;fillColor=#d5e8d4;align=left;verticalAlign=middle;spacingLeft=4;spacingRight=4;overflow=hidden;points=[[0,0.5],[1,0.5]];portConstraint=eastwest;rotatable=0;whiteSpace=wrap;html=1;" vertex="1" parent="tRrPQd9gGLpKsUqzO6ij-12">
          <mxGeometry y="60" width="260" height="30" as="geometry" />
        </mxCell>
        <mxCell id="tRrPQd9gGLpKsUqzO6ij-26" style="edgeStyle=orthogonalEdgeStyle;rounded=0;orthogonalLoop=1;jettySize=auto;html=1;entryX=0;entryY=0.5;entryDx=0;entryDy=0;" edge="1" parent="1" source="tRrPQd9gGLpKsUqzO6ij-19" target="tRrPQd9gGLpKsUqzO6ij-21">
          <mxGeometry relative="1" as="geometry" />
        </mxCell>
        <mxCell id="tRrPQd9gGLpKsUqzO6ij-19" value="ReDefine atoms importing this one" style="shape=step;perimeter=stepPerimeter;whiteSpace=wrap;html=1;fixedSize=1;" vertex="1" parent="1">
          <mxGeometry x="600" y="575" width="260" height="50" as="geometry" />
        </mxCell>
        <mxCell id="tRrPQd9gGLpKsUqzO6ij-21" value="&lt;div&gt;AppAtom&lt;/div&gt;" style="rounded=1;whiteSpace=wrap;html=1;" vertex="1" parent="1">
          <mxGeometry x="760" y="645" width="90" height="30" as="geometry" />
        </mxCell>
        <mxCell id="tRrPQd9gGLpKsUqzO6ij-27" value="atomicreact" style="rounded=1;whiteSpace=wrap;html=1;" vertex="1" parent="1">
          <mxGeometry x="430" y="40" width="150" height="60" as="geometry" />
        </mxCell>
        <mxCell id="tRrPQd9gGLpKsUqzO6ij-34" value="atomicreact.atoms" style="swimlane;fontStyle=0;childLayout=stackLayout;horizontal=1;startSize=30;horizontalStack=0;resizeParent=1;resizeParentMax=0;resizeLast=0;collapsible=1;marginBottom=0;whiteSpace=wrap;html=1;" vertex="1" parent="1">
          <mxGeometry x="920" y="315" width="210" height="60" as="geometry" />
        </mxCell>
        <mxCell id="tRrPQd9gGLpKsUqzO6ij-37" value="atomicreact.atoms" style="swimlane;fontStyle=0;childLayout=stackLayout;horizontal=1;startSize=30;horizontalStack=0;resizeParent=1;resizeParentMax=0;resizeLast=0;collapsible=1;marginBottom=0;whiteSpace=wrap;html=1;" vertex="1" parent="1">
          <mxGeometry x="920" y="685" width="210" height="60" as="geometry" />
        </mxCell>
        <mxCell id="tRrPQd9gGLpKsUqzO6ij-42" value="MyAtomInFolderAtom" style="text;strokeColor=#82b366;fillColor=#d5e8d4;align=left;verticalAlign=middle;spacingLeft=4;spacingRight=4;overflow=hidden;points=[[0,0.5],[1,0.5]];portConstraint=eastwest;rotatable=0;whiteSpace=wrap;html=1;" vertex="1" parent="tRrPQd9gGLpKsUqzO6ij-37">
          <mxGeometry y="30" width="210" height="30" as="geometry" />
        </mxCell>
        <mxCell id="tRrPQd9gGLpKsUqzO6ij-76" style="edgeStyle=orthogonalEdgeStyle;rounded=0;orthogonalLoop=1;jettySize=auto;html=1;entryX=0;entryY=0.5;entryDx=0;entryDy=0;" edge="1" parent="1" source="tRrPQd9gGLpKsUqzO6ij-43" target="tRrPQd9gGLpKsUqzO6ij-73">
          <mxGeometry relative="1" as="geometry" />
        </mxCell>
        <mxCell id="tRrPQd9gGLpKsUqzO6ij-77" style="edgeStyle=orthogonalEdgeStyle;rounded=0;orthogonalLoop=1;jettySize=auto;html=1;entryX=0;entryY=0.5;entryDx=0;entryDy=0;" edge="1" parent="1" source="tRrPQd9gGLpKsUqzO6ij-43" target="tRrPQd9gGLpKsUqzO6ij-74">
          <mxGeometry relative="1" as="geometry" />
        </mxCell>
        <mxCell id="tRrPQd9gGLpKsUqzO6ij-43" value="Define dependecies" style="shape=step;perimeter=stepPerimeter;whiteSpace=wrap;html=1;fixedSize=1;" vertex="1" parent="1">
          <mxGeometry x="600" y="150" width="260" height="50" as="geometry" />
        </mxCell>
        <mxCell id="tRrPQd9gGLpKsUqzO6ij-45" value="ReDefine atoms importing this one" style="shape=step;perimeter=stepPerimeter;whiteSpace=wrap;html=1;fixedSize=1;" vertex="1" parent="1">
          <mxGeometry x="600" y="320" width="260" height="50" as="geometry" />
        </mxCell>
        <mxCell id="tRrPQd9gGLpKsUqzO6ij-47" value="atomicreact.atoms" style="swimlane;fontStyle=0;childLayout=stackLayout;horizontal=1;startSize=30;horizontalStack=0;resizeParent=1;resizeParentMax=0;resizeLast=0;collapsible=1;marginBottom=0;whiteSpace=wrap;html=1;" vertex="1" parent="1">
          <mxGeometry x="820" y="40" width="210" height="60" as="geometry" />
        </mxCell>
        <mxCell id="tRrPQd9gGLpKsUqzO6ij-48" value="atomicreact.defines" style="swimlane;fontStyle=0;childLayout=stackLayout;horizontal=1;startSize=30;horizontalStack=0;resizeParent=1;resizeParentMax=0;resizeLast=0;collapsible=1;marginBottom=0;whiteSpace=wrap;html=1;" vertex="1" parent="1">
          <mxGeometry x="600" y="40" width="210" height="60" as="geometry" />
        </mxCell>
        <mxCell id="tRrPQd9gGLpKsUqzO6ij-53" value="Define dependecies" style="shape=step;perimeter=stepPerimeter;whiteSpace=wrap;html=1;fixedSize=1;" vertex="1" parent="1">
          <mxGeometry x="600" y="460" width="260" height="50" as="geometry" />
        </mxCell>
        <mxCell id="tRrPQd9gGLpKsUqzO6ij-57" value="atomicreact.defines" style="swimlane;fontStyle=0;childLayout=stackLayout;horizontal=1;startSize=30;horizontalStack=0;resizeParent=1;resizeParentMax=0;resizeLast=0;collapsible=1;marginBottom=0;whiteSpace=wrap;html=1;" vertex="1" parent="1">
          <mxGeometry x="920" y="440" width="260" height="90" as="geometry" />
        </mxCell>
        <mxCell id="tRrPQd9gGLpKsUqzO6ij-58" value="atomInFolder/myAtomInFolderAtom: AppAtom" style="text;strokeColor=none;fillColor=none;align=left;verticalAlign=middle;spacingLeft=4;spacingRight=4;overflow=hidden;points=[[0,0.5],[1,0.5]];portConstraint=eastwest;rotatable=0;whiteSpace=wrap;html=1;" vertex="1" parent="tRrPQd9gGLpKsUqzO6ij-57">
          <mxGeometry y="30" width="260" height="30" as="geometry" />
        </mxCell>
        <mxCell id="tRrPQd9gGLpKsUqzO6ij-59" value="myAtoms/myFirstAtom: AppAtom" style="text;strokeColor=none;fillColor=none;align=left;verticalAlign=middle;spacingLeft=4;spacingRight=4;overflow=hidden;points=[[0,0.5],[1,0.5]];portConstraint=eastwest;rotatable=0;whiteSpace=wrap;html=1;" vertex="1" parent="tRrPQd9gGLpKsUqzO6ij-57">
          <mxGeometry y="60" width="260" height="30" as="geometry" />
        </mxCell>
        <mxCell id="tRrPQd9gGLpKsUqzO6ij-60" value="atomicreact.defines" style="swimlane;fontStyle=0;childLayout=stackLayout;horizontal=1;startSize=30;horizontalStack=0;resizeParent=1;resizeParentMax=0;resizeLast=0;collapsible=1;marginBottom=0;whiteSpace=wrap;html=1;" vertex="1" parent="1">
          <mxGeometry x="920" y="575" width="260" height="90" as="geometry" />
        </mxCell>
        <mxCell id="tRrPQd9gGLpKsUqzO6ij-113" value="atomInFolder/myAtomInFolderAtom: AppAtom" style="text;strokeColor=#b85450;fillColor=#f8cecc;align=left;verticalAlign=middle;spacingLeft=4;spacingRight=4;overflow=hidden;points=[[0,0.5],[1,0.5]];portConstraint=eastwest;rotatable=0;whiteSpace=wrap;html=1;sketch=1;curveFitting=1;jiggle=2;shadow=0;rounded=0;glass=0;" vertex="1" parent="tRrPQd9gGLpKsUqzO6ij-60">
          <mxGeometry y="30" width="260" height="30" as="geometry" />
        </mxCell>
        <mxCell id="tRrPQd9gGLpKsUqzO6ij-62" value="myAtoms/myFirstAtom: AppAtom" style="text;strokeColor=none;fillColor=none;align=left;verticalAlign=middle;spacingLeft=4;spacingRight=4;overflow=hidden;points=[[0,0.5],[1,0.5]];portConstraint=eastwest;rotatable=0;whiteSpace=wrap;html=1;" vertex="1" parent="tRrPQd9gGLpKsUqzO6ij-60">
          <mxGeometry y="60" width="260" height="30" as="geometry" />
        </mxCell>
        <mxCell id="tRrPQd9gGLpKsUqzO6ij-79" style="edgeStyle=orthogonalEdgeStyle;rounded=0;orthogonalLoop=1;jettySize=auto;html=1;entryX=0;entryY=0.5;entryDx=0;entryDy=0;" edge="1" parent="1" source="tRrPQd9gGLpKsUqzO6ij-65" target="tRrPQd9gGLpKsUqzO6ij-78">
          <mxGeometry relative="1" as="geometry" />
        </mxCell>
        <mxCell id="tRrPQd9gGLpKsUqzO6ij-65" value="Define dependecies" style="shape=step;perimeter=stepPerimeter;whiteSpace=wrap;html=1;fixedSize=1;" vertex="1" parent="1">
          <mxGeometry x="600" y="845" width="260" height="50" as="geometry" />
        </mxCell>
        <mxCell id="tRrPQd9gGLpKsUqzO6ij-69" value="atomicreact.defines" style="swimlane;fontStyle=0;childLayout=stackLayout;horizontal=1;startSize=30;horizontalStack=0;resizeParent=1;resizeParentMax=0;resizeLast=0;collapsible=1;marginBottom=0;whiteSpace=wrap;html=1;" vertex="1" parent="1">
          <mxGeometry x="910" y="845" width="250" height="90" as="geometry" />
        </mxCell>
        <mxCell id="tRrPQd9gGLpKsUqzO6ij-71" value="myAtoms/myFirstAtom: AppAtom" style="text;strokeColor=none;fillColor=none;align=left;verticalAlign=middle;spacingLeft=4;spacingRight=4;overflow=hidden;points=[[0,0.5],[1,0.5]];portConstraint=eastwest;rotatable=0;whiteSpace=wrap;html=1;" vertex="1" parent="tRrPQd9gGLpKsUqzO6ij-69">
          <mxGeometry y="30" width="250" height="30" as="geometry" />
        </mxCell>
        <mxCell id="tRrPQd9gGLpKsUqzO6ij-70" value="app: IndexAtom" style="text;strokeColor=#82b366;fillColor=#d5e8d4;align=left;verticalAlign=middle;spacingLeft=4;spacingRight=4;overflow=hidden;points=[[0,0.5],[1,0.5]];portConstraint=eastwest;rotatable=0;whiteSpace=wrap;html=1;" vertex="1" parent="tRrPQd9gGLpKsUqzO6ij-69">
          <mxGeometry y="60" width="250" height="30" as="geometry" />
        </mxCell>
        <mxCell id="tRrPQd9gGLpKsUqzO6ij-72" value="ReDefine atoms importing this one" style="shape=step;perimeter=stepPerimeter;whiteSpace=wrap;html=1;fixedSize=1;" vertex="1" parent="1">
          <mxGeometry x="600" y="990" width="260" height="50" as="geometry" />
        </mxCell>
        <mxCell id="tRrPQd9gGLpKsUqzO6ij-73" value="MyAtomInFolderAtom" style="rounded=1;whiteSpace=wrap;html=1;" vertex="1" parent="1">
          <mxGeometry x="754" y="220" width="136" height="30" as="geometry" />
        </mxCell>
        <mxCell id="tRrPQd9gGLpKsUqzO6ij-74" value="MyFirstAtom" style="rounded=1;whiteSpace=wrap;html=1;" vertex="1" parent="1">
          <mxGeometry x="754" y="260" width="136" height="30" as="geometry" />
        </mxCell>
        <mxCell id="tRrPQd9gGLpKsUqzO6ij-78" value="&lt;div&gt;AppAtom&lt;/div&gt;" style="rounded=1;whiteSpace=wrap;html=1;" vertex="1" parent="1">
          <mxGeometry x="760" y="915" width="90" height="30" as="geometry" />
        </mxCell>
        <mxCell id="tRrPQd9gGLpKsUqzO6ij-80" value="atomicreact.atoms" style="swimlane;fontStyle=0;childLayout=stackLayout;horizontal=1;startSize=30;horizontalStack=0;resizeParent=1;resizeParentMax=0;resizeLast=0;collapsible=1;marginBottom=0;whiteSpace=wrap;html=1;" vertex="1" parent="1">
          <mxGeometry x="910" y="985" width="210" height="60" as="geometry" />
        </mxCell>
        <mxCell id="tRrPQd9gGLpKsUqzO6ij-81" value="MyAtomInFolderAtom" style="text;strokeColor=none;fillColor=none;align=left;verticalAlign=middle;spacingLeft=4;spacingRight=4;overflow=hidden;points=[[0,0.5],[1,0.5]];portConstraint=eastwest;rotatable=0;whiteSpace=wrap;html=1;" vertex="1" parent="tRrPQd9gGLpKsUqzO6ij-80">
          <mxGeometry y="30" width="210" height="30" as="geometry" />
        </mxCell>
        <mxCell id="tRrPQd9gGLpKsUqzO6ij-84" value="MyFirstAtom" style="rounded=1;whiteSpace=wrap;html=1;" vertex="1" parent="1">
          <mxGeometry x="430" y="1130" width="120" height="60" as="geometry" />
        </mxCell>
        <mxCell id="tRrPQd9gGLpKsUqzO6ij-85" value="Define dependecies" style="shape=step;perimeter=stepPerimeter;whiteSpace=wrap;html=1;fixedSize=1;" vertex="1" parent="1">
          <mxGeometry x="580" y="1135" width="260" height="50" as="geometry" />
        </mxCell>
        <mxCell id="tRrPQd9gGLpKsUqzO6ij-86" value="atomicreact.defines" style="swimlane;fontStyle=0;childLayout=stackLayout;horizontal=1;startSize=30;horizontalStack=0;resizeParent=1;resizeParentMax=0;resizeLast=0;collapsible=1;marginBottom=0;whiteSpace=wrap;html=1;" vertex="1" parent="1">
          <mxGeometry x="910" y="1115" width="210" height="90" as="geometry" />
        </mxCell>
        <mxCell id="tRrPQd9gGLpKsUqzO6ij-87" value="myAtoms/myFirstAtom: AppAtom" style="text;strokeColor=none;fillColor=none;align=left;verticalAlign=middle;spacingLeft=4;spacingRight=4;overflow=hidden;points=[[0,0.5],[1,0.5]];portConstraint=eastwest;rotatable=0;whiteSpace=wrap;html=1;" vertex="1" parent="tRrPQd9gGLpKsUqzO6ij-86">
          <mxGeometry y="30" width="210" height="30" as="geometry" />
        </mxCell>
        <mxCell id="tRrPQd9gGLpKsUqzO6ij-88" value="app: IndexAtom" style="text;strokeColor=none;fillColor=none;align=left;verticalAlign=middle;spacingLeft=4;spacingRight=4;overflow=hidden;points=[[0,0.5],[1,0.5]];portConstraint=eastwest;rotatable=0;whiteSpace=wrap;html=1;" vertex="1" parent="tRrPQd9gGLpKsUqzO6ij-86">
          <mxGeometry y="60" width="210" height="30" as="geometry" />
        </mxCell>
        <mxCell id="tRrPQd9gGLpKsUqzO6ij-95" style="edgeStyle=orthogonalEdgeStyle;rounded=0;orthogonalLoop=1;jettySize=auto;html=1;entryX=0;entryY=0.5;entryDx=0;entryDy=0;" edge="1" parent="1" source="tRrPQd9gGLpKsUqzO6ij-89" target="tRrPQd9gGLpKsUqzO6ij-94">
          <mxGeometry relative="1" as="geometry" />
        </mxCell>
        <mxCell id="tRrPQd9gGLpKsUqzO6ij-89" value="ReDefine atoms importing this one" style="shape=step;perimeter=stepPerimeter;whiteSpace=wrap;html=1;fixedSize=1;" vertex="1" parent="1">
          <mxGeometry x="580" y="1320" width="260" height="50" as="geometry" />
        </mxCell>
        <mxCell id="tRrPQd9gGLpKsUqzO6ij-90" value="atomicreact.atoms" style="swimlane;fontStyle=0;childLayout=stackLayout;horizontal=1;startSize=30;horizontalStack=0;resizeParent=1;resizeParentMax=0;resizeLast=0;collapsible=1;marginBottom=0;whiteSpace=wrap;html=1;" vertex="1" parent="1">
          <mxGeometry x="910" y="1220" width="210" height="90" as="geometry" />
        </mxCell>
        <mxCell id="tRrPQd9gGLpKsUqzO6ij-91" value="MyAtomInFolderAtom" style="text;strokeColor=none;fillColor=none;align=left;verticalAlign=middle;spacingLeft=4;spacingRight=4;overflow=hidden;points=[[0,0.5],[1,0.5]];portConstraint=eastwest;rotatable=0;whiteSpace=wrap;html=1;" vertex="1" parent="tRrPQd9gGLpKsUqzO6ij-90">
          <mxGeometry y="30" width="210" height="30" as="geometry" />
        </mxCell>
        <mxCell id="tRrPQd9gGLpKsUqzO6ij-92" value="MyFirstAtomAtom" style="text;strokeColor=#82b366;fillColor=#d5e8d4;align=left;verticalAlign=middle;spacingLeft=4;spacingRight=4;overflow=hidden;points=[[0,0.5],[1,0.5]];portConstraint=eastwest;rotatable=0;whiteSpace=wrap;html=1;" vertex="1" parent="tRrPQd9gGLpKsUqzO6ij-90">
          <mxGeometry y="60" width="210" height="30" as="geometry" />
        </mxCell>
        <mxCell id="tRrPQd9gGLpKsUqzO6ij-94" value="&lt;div&gt;AppAtom&lt;/div&gt;" style="rounded=1;whiteSpace=wrap;html=1;" vertex="1" parent="1">
          <mxGeometry x="754" y="1400" width="90" height="30" as="geometry" />
        </mxCell>
        <mxCell id="tRrPQd9gGLpKsUqzO6ij-100" value="IndexAtom" style="rounded=1;whiteSpace=wrap;html=1;" vertex="1" parent="1">
          <mxGeometry x="1034" y="1640" width="80" height="30" as="geometry" />
        </mxCell>
        <mxCell id="tRrPQd9gGLpKsUqzO6ij-103" value="Define dependecies" style="shape=step;perimeter=stepPerimeter;whiteSpace=wrap;html=1;fixedSize=1;" vertex="1" parent="1">
          <mxGeometry x="854" y="1400" width="260" height="30" as="geometry" />
        </mxCell>
        <mxCell id="tRrPQd9gGLpKsUqzO6ij-105" style="edgeStyle=orthogonalEdgeStyle;rounded=0;orthogonalLoop=1;jettySize=auto;html=1;entryX=0;entryY=0.5;entryDx=0;entryDy=0;" edge="1" parent="1" source="tRrPQd9gGLpKsUqzO6ij-104" target="tRrPQd9gGLpKsUqzO6ij-100">
          <mxGeometry relative="1" as="geometry" />
        </mxCell>
        <mxCell id="tRrPQd9gGLpKsUqzO6ij-104" value="ReDefine atoms importing this one" style="shape=step;perimeter=stepPerimeter;whiteSpace=wrap;html=1;fixedSize=1;" vertex="1" parent="1">
          <mxGeometry x="854" y="1510" width="260" height="30" as="geometry" />
        </mxCell>
        <mxCell id="tRrPQd9gGLpKsUqzO6ij-106" value="Define dependecies" style="shape=step;perimeter=stepPerimeter;whiteSpace=wrap;html=1;fixedSize=1;" vertex="1" parent="1">
          <mxGeometry x="1124" y="1640" width="260" height="30" as="geometry" />
        </mxCell>
        <mxCell id="tRrPQd9gGLpKsUqzO6ij-107" value="ReDefine atoms importing this one" style="shape=step;perimeter=stepPerimeter;whiteSpace=wrap;html=1;fixedSize=1;" vertex="1" parent="1">
          <mxGeometry x="1120" y="1760" width="260" height="30" as="geometry" />
        </mxCell>
        <mxCell id="tRrPQd9gGLpKsUqzO6ij-108" value="atomicreact.atoms" style="swimlane;fontStyle=0;childLayout=stackLayout;horizontal=1;startSize=30;horizontalStack=0;resizeParent=1;resizeParentMax=0;resizeLast=0;collapsible=1;marginBottom=0;whiteSpace=wrap;html=1;" vertex="1" parent="1">
          <mxGeometry x="1400" y="1760" width="160" height="150" as="geometry" />
        </mxCell>
        <mxCell id="tRrPQd9gGLpKsUqzO6ij-109" value="MyAtomInFolderAtom" style="text;strokeColor=none;fillColor=none;align=left;verticalAlign=middle;spacingLeft=4;spacingRight=4;overflow=hidden;points=[[0,0.5],[1,0.5]];portConstraint=eastwest;rotatable=0;whiteSpace=wrap;html=1;" vertex="1" parent="tRrPQd9gGLpKsUqzO6ij-108">
          <mxGeometry y="30" width="160" height="30" as="geometry" />
        </mxCell>
        <mxCell id="tRrPQd9gGLpKsUqzO6ij-110" value="AppAtom" style="text;strokeColor=none;fillColor=none;align=left;verticalAlign=middle;spacingLeft=4;spacingRight=4;overflow=hidden;points=[[0,0.5],[1,0.5]];portConstraint=eastwest;rotatable=0;whiteSpace=wrap;html=1;" vertex="1" parent="tRrPQd9gGLpKsUqzO6ij-108">
          <mxGeometry y="60" width="160" height="30" as="geometry" />
        </mxCell>
        <mxCell id="tRrPQd9gGLpKsUqzO6ij-111" value="MyFirstAtomAtom" style="text;strokeColor=none;fillColor=none;align=left;verticalAlign=middle;spacingLeft=4;spacingRight=4;overflow=hidden;points=[[0,0.5],[1,0.5]];portConstraint=eastwest;rotatable=0;whiteSpace=wrap;html=1;" vertex="1" parent="tRrPQd9gGLpKsUqzO6ij-108">
          <mxGeometry y="90" width="160" height="30" as="geometry" />
        </mxCell>
        <mxCell id="tRrPQd9gGLpKsUqzO6ij-112" value="IndexAtom" style="text;strokeColor=#82b366;fillColor=#d5e8d4;align=left;verticalAlign=middle;spacingLeft=4;spacingRight=4;overflow=hidden;points=[[0,0.5],[1,0.5]];portConstraint=eastwest;rotatable=0;whiteSpace=wrap;html=1;" vertex="1" parent="tRrPQd9gGLpKsUqzO6ij-108">
          <mxGeometry y="120" width="160" height="30" as="geometry" />
        </mxCell>
        <mxCell id="tRrPQd9gGLpKsUqzO6ij-114" value="atomicreact.atoms" style="swimlane;fontStyle=0;childLayout=stackLayout;horizontal=1;startSize=30;horizontalStack=0;resizeParent=1;resizeParentMax=0;resizeLast=0;collapsible=1;marginBottom=0;whiteSpace=wrap;html=1;" vertex="1" parent="1">
          <mxGeometry x="1120" y="1510" width="210" height="120" as="geometry" />
        </mxCell>
        <mxCell id="tRrPQd9gGLpKsUqzO6ij-115" value="MyAtomInFolderAtom" style="text;strokeColor=none;fillColor=none;align=left;verticalAlign=middle;spacingLeft=4;spacingRight=4;overflow=hidden;points=[[0,0.5],[1,0.5]];portConstraint=eastwest;rotatable=0;whiteSpace=wrap;html=1;" vertex="1" parent="tRrPQd9gGLpKsUqzO6ij-114">
          <mxGeometry y="30" width="210" height="30" as="geometry" />
        </mxCell>
        <mxCell id="tRrPQd9gGLpKsUqzO6ij-116" value="MyFirstAtomAtom" style="text;strokeColor=none;fillColor=none;align=left;verticalAlign=middle;spacingLeft=4;spacingRight=4;overflow=hidden;points=[[0,0.5],[1,0.5]];portConstraint=eastwest;rotatable=0;whiteSpace=wrap;html=1;" vertex="1" parent="tRrPQd9gGLpKsUqzO6ij-114">
          <mxGeometry y="60" width="210" height="30" as="geometry" />
        </mxCell>
        <mxCell id="tRrPQd9gGLpKsUqzO6ij-117" value="AppAtom" style="text;strokeColor=#82b366;fillColor=#d5e8d4;align=left;verticalAlign=middle;spacingLeft=4;spacingRight=4;overflow=hidden;points=[[0,0.5],[1,0.5]];portConstraint=eastwest;rotatable=0;whiteSpace=wrap;html=1;" vertex="1" parent="tRrPQd9gGLpKsUqzO6ij-114">
          <mxGeometry y="90" width="210" height="30" as="geometry" />
        </mxCell>
        <mxCell id="tRrPQd9gGLpKsUqzO6ij-118" value="atomicreact.defines" style="swimlane;fontStyle=0;childLayout=stackLayout;horizontal=1;startSize=30;horizontalStack=0;resizeParent=1;resizeParentMax=0;resizeLast=0;collapsible=1;marginBottom=0;whiteSpace=wrap;html=1;" vertex="1" parent="1">
          <mxGeometry x="1120" y="1400" width="210" height="90" as="geometry" />
        </mxCell>
        <mxCell id="tRrPQd9gGLpKsUqzO6ij-119" value="myAtoms/myFirstAtom: AppAtom" style="text;strokeColor=none;fillColor=none;align=left;verticalAlign=middle;spacingLeft=4;spacingRight=4;overflow=hidden;points=[[0,0.5],[1,0.5]];portConstraint=eastwest;rotatable=0;whiteSpace=wrap;html=1;" vertex="1" parent="tRrPQd9gGLpKsUqzO6ij-118">
          <mxGeometry y="30" width="210" height="30" as="geometry" />
        </mxCell>
        <mxCell id="tRrPQd9gGLpKsUqzO6ij-120" value="app: IndexAtom" style="text;strokeColor=none;fillColor=none;align=left;verticalAlign=middle;spacingLeft=4;spacingRight=4;overflow=hidden;points=[[0,0.5],[1,0.5]];portConstraint=eastwest;rotatable=0;whiteSpace=wrap;html=1;" vertex="1" parent="tRrPQd9gGLpKsUqzO6ij-118">
          <mxGeometry y="60" width="210" height="30" as="geometry" />
        </mxCell>
        <mxCell id="tRrPQd9gGLpKsUqzO6ij-121" value="atomicreact.defines" style="swimlane;fontStyle=0;childLayout=stackLayout;horizontal=1;startSize=30;horizontalStack=0;resizeParent=1;resizeParentMax=0;resizeLast=0;collapsible=1;marginBottom=0;whiteSpace=wrap;html=1;" vertex="1" parent="1">
          <mxGeometry x="1400" y="1640" width="210" height="90" as="geometry" />
        </mxCell>
        <mxCell id="tRrPQd9gGLpKsUqzO6ij-122" value="myAtoms/myFirstAtom: AppAtom" style="text;strokeColor=none;fillColor=none;align=left;verticalAlign=middle;spacingLeft=4;spacingRight=4;overflow=hidden;points=[[0,0.5],[1,0.5]];portConstraint=eastwest;rotatable=0;whiteSpace=wrap;html=1;" vertex="1" parent="tRrPQd9gGLpKsUqzO6ij-121">
          <mxGeometry y="30" width="210" height="30" as="geometry" />
        </mxCell>
        <mxCell id="tRrPQd9gGLpKsUqzO6ij-123" value="app: IndexAtom" style="text;strokeColor=none;fillColor=none;align=left;verticalAlign=middle;spacingLeft=4;spacingRight=4;overflow=hidden;points=[[0,0.5],[1,0.5]];portConstraint=eastwest;rotatable=0;whiteSpace=wrap;html=1;" vertex="1" parent="tRrPQd9gGLpKsUqzO6ij-121">
          <mxGeometry y="60" width="210" height="30" as="geometry" />
        </mxCell>
        <mxCell id="tRrPQd9gGLpKsUqzO6ij-125" value="atomicreact.defines" style="swimlane;fontStyle=0;childLayout=stackLayout;horizontal=1;startSize=30;horizontalStack=0;resizeParent=1;resizeParentMax=0;resizeLast=0;collapsible=1;marginBottom=0;whiteSpace=wrap;html=1;" vertex="1" parent="1">
          <mxGeometry x="1400" y="1930" width="210" height="90" as="geometry" />
        </mxCell>
        <mxCell id="tRrPQd9gGLpKsUqzO6ij-126" value="myAtoms/myFirstAtom: AppAtom" style="text;strokeColor=none;fillColor=none;align=left;verticalAlign=middle;spacingLeft=4;spacingRight=4;overflow=hidden;points=[[0,0.5],[1,0.5]];portConstraint=eastwest;rotatable=0;whiteSpace=wrap;html=1;" vertex="1" parent="tRrPQd9gGLpKsUqzO6ij-125">
          <mxGeometry y="30" width="210" height="30" as="geometry" />
        </mxCell>
        <mxCell id="tRrPQd9gGLpKsUqzO6ij-127" value="app: IndexAtom" style="text;strokeColor=#b85450;fillColor=#f8cecc;align=left;verticalAlign=middle;spacingLeft=4;spacingRight=4;overflow=hidden;points=[[0,0.5],[1,0.5]];portConstraint=eastwest;rotatable=0;whiteSpace=wrap;html=1;sketch=1;curveFitting=1;jiggle=2;" vertex="1" parent="tRrPQd9gGLpKsUqzO6ij-125">
          <mxGeometry y="60" width="210" height="30" as="geometry" />
        </mxCell>
        <mxCell id="tRrPQd9gGLpKsUqzO6ij-128" value="atomicreact.defines" style="swimlane;fontStyle=0;childLayout=stackLayout;horizontal=1;startSize=30;horizontalStack=0;resizeParent=1;resizeParentMax=0;resizeLast=0;collapsible=1;marginBottom=0;whiteSpace=wrap;html=1;" vertex="1" parent="1">
          <mxGeometry x="910" y="2040" width="210" height="90" as="geometry" />
        </mxCell>
        <mxCell id="tRrPQd9gGLpKsUqzO6ij-129" value="myAtoms/myFirstAtom: AppAtom" style="text;strokeColor=#b85450;fillColor=#f8cecc;align=left;verticalAlign=middle;spacingLeft=4;spacingRight=4;overflow=hidden;points=[[0,0.5],[1,0.5]];portConstraint=eastwest;rotatable=0;whiteSpace=wrap;html=1;sketch=1;curveFitting=1;jiggle=2;" vertex="1" parent="tRrPQd9gGLpKsUqzO6ij-128">
          <mxGeometry y="30" width="210" height="30" as="geometry" />
        </mxCell>
        <mxCell id="tRrPQd9gGLpKsUqzO6ij-130" value="app: IndexAtom" style="text;strokeColor=#b85450;fillColor=#f8cecc;align=left;verticalAlign=middle;spacingLeft=4;spacingRight=4;overflow=hidden;points=[[0,0.5],[1,0.5]];portConstraint=eastwest;rotatable=0;whiteSpace=wrap;html=1;sketch=1;curveFitting=1;jiggle=2;" vertex="1" parent="tRrPQd9gGLpKsUqzO6ij-128">
          <mxGeometry y="60" width="210" height="30" as="geometry" />
        </mxCell>
        <mxCell id="tRrPQd9gGLpKsUqzO6ij-131" value="atomicreact.defines" style="swimlane;fontStyle=0;childLayout=stackLayout;horizontal=1;startSize=30;horizontalStack=0;resizeParent=1;resizeParentMax=0;resizeLast=0;collapsible=1;marginBottom=0;whiteSpace=wrap;html=1;" vertex="1" parent="1">
          <mxGeometry x="1060" y="2220" width="210" height="60" as="geometry" />
        </mxCell>
        <mxCell id="tRrPQd9gGLpKsUqzO6ij-134" value="atomicreact.atoms" style="swimlane;fontStyle=0;childLayout=stackLayout;horizontal=1;startSize=30;horizontalStack=0;resizeParent=1;resizeParentMax=0;resizeLast=0;collapsible=1;marginBottom=0;whiteSpace=wrap;html=1;" vertex="1" parent="1">
          <mxGeometry x="810" y="2175" width="160" height="150" as="geometry" />
        </mxCell>
        <mxCell id="tRrPQd9gGLpKsUqzO6ij-135" value="MyAtomInFolderAtom" style="text;strokeColor=none;fillColor=none;align=left;verticalAlign=middle;spacingLeft=4;spacingRight=4;overflow=hidden;points=[[0,0.5],[1,0.5]];portConstraint=eastwest;rotatable=0;whiteSpace=wrap;html=1;" vertex="1" parent="tRrPQd9gGLpKsUqzO6ij-134">
          <mxGeometry y="30" width="160" height="30" as="geometry" />
        </mxCell>
        <mxCell id="tRrPQd9gGLpKsUqzO6ij-136" value="AppAtom" style="text;strokeColor=none;fillColor=none;align=left;verticalAlign=middle;spacingLeft=4;spacingRight=4;overflow=hidden;points=[[0,0.5],[1,0.5]];portConstraint=eastwest;rotatable=0;whiteSpace=wrap;html=1;" vertex="1" parent="tRrPQd9gGLpKsUqzO6ij-134">
          <mxGeometry y="60" width="160" height="30" as="geometry" />
        </mxCell>
        <mxCell id="tRrPQd9gGLpKsUqzO6ij-137" value="MyFirstAtomAtom" style="text;strokeColor=none;fillColor=none;align=left;verticalAlign=middle;spacingLeft=4;spacingRight=4;overflow=hidden;points=[[0,0.5],[1,0.5]];portConstraint=eastwest;rotatable=0;whiteSpace=wrap;html=1;" vertex="1" parent="tRrPQd9gGLpKsUqzO6ij-134">
          <mxGeometry y="90" width="160" height="30" as="geometry" />
        </mxCell>
        <mxCell id="tRrPQd9gGLpKsUqzO6ij-138" value="IndexAtom" style="text;strokeColor=none;fillColor=none;align=left;verticalAlign=middle;spacingLeft=4;spacingRight=4;overflow=hidden;points=[[0,0.5],[1,0.5]];portConstraint=eastwest;rotatable=0;whiteSpace=wrap;html=1;" vertex="1" parent="tRrPQd9gGLpKsUqzO6ij-134">
          <mxGeometry y="120" width="160" height="30" as="geometry" />
        </mxCell>
      </root>
    </mxGraphModel>
  </diagram>
</mxfile>
